<svg width="186" height="40" viewBox="0 0 186 40" fill="none" xmlns="http://www.w3.org/2000/svg">
<g clip-path="url(#clip0_803_14868)">
<path fill-rule="evenodd" clip-rule="evenodd" d="M20 40C31.0457 40 40 31.0457 40 20C40 8.9543 31.0457 0 20 0C8.9543 0 0 8.9543 0 20C0 31.0457 8.9543 40 20 40ZM11.7581 6.81317H16.7031V11.7582H11.7581V6.81317ZM11.7581 16.7034L6.8136 16.7031V11.7583L11.7581 11.7582V16.7034ZM11.7581 16.7034H16.7032V23.2968C16.7032 25.1175 18.1792 26.5935 20 26.5935C21.8207 26.5935 23.2967 25.1175 23.2967 23.2968V11.7583H33.1872V21.6484C33.1872 28.9313 27.2833 34.8352 20.0004 34.8352C12.7175 34.8352 6.8136 28.931 6.8136 21.6481H11.7581V16.7034Z" fill="white"/>
</g>
<path d="M73.5424 4.17163C72.8315 4.17163 72.2226 4.75995 72.2226 5.49147C72.2226 6.22299 72.8315 6.8113 73.5424 6.8113C74.2733 6.8113 74.8622 6.22235 74.8622 5.49147C74.8622 4.76058 74.2733 4.17163 73.5424 4.17163Z" fill="white"/>
<path d="M48.0636 4.26827C48.0285 4.26827 48 4.29673 48 4.33184V12.14C48 13.7369 48.4627 15.0835 49.4052 16.0309C50.3479 16.9785 51.7623 17.5185 53.6491 17.5185C55.5262 17.5185 56.9358 16.9833 57.8761 16.0357C58.8163 15.0882 59.2789 13.7367 59.2789 12.1207V4.33184C59.2789 4.29673 59.2504 4.26827 59.2153 4.26827H56.9347C56.8996 4.26827 56.8711 4.29673 56.8711 4.33184V12.0627C56.8711 13.0756 56.5893 13.9039 56.05 14.4785C55.5113 15.0525 54.7082 15.3813 53.6491 15.3813C52.5802 15.3813 51.7722 15.0524 51.2312 14.4784C50.6895 13.9038 50.4077 13.0756 50.4077 12.0627V4.33184C50.4077 4.29673 50.3793 4.26827 50.3442 4.26827H48.0636Z" fill="white"/>
<path d="M61.7037 4.26827C61.6685 4.26827 61.6401 4.29673 61.6401 4.33184V17.223C61.6401 17.2581 61.6685 17.2866 61.7037 17.2866H63.733C63.7681 17.2866 63.7966 17.2581 63.7966 17.223V4.33184C63.7966 4.29673 63.7681 4.26827 63.733 4.26827H61.7037Z" fill="white"/>
<path d="M66.9647 5.27327C66.9296 5.27327 66.9011 5.30174 66.9011 5.33685V7.82445H65.4185C65.3834 7.82445 65.355 7.85291 65.355 7.88802V9.66611C65.355 9.70123 65.3834 9.72969 65.4185 9.72969H66.9011V15.0584C66.9011 15.8424 67.112 16.4599 67.5308 16.8813C67.9497 17.3027 68.5674 17.5185 69.3613 17.5185C70.3194 17.5185 70.9361 17.2641 71.3184 16.9019C71.336 16.8852 71.3426 16.8598 71.3352 16.8366L70.8521 15.3098C70.8452 15.288 70.8271 15.2715 70.8047 15.2668C70.7823 15.262 70.7591 15.2696 70.7439 15.2867C70.6758 15.3634 70.5554 15.4408 70.4017 15.499C70.249 15.5568 70.0682 15.5939 69.8831 15.5939C69.6122 15.5939 69.4089 15.4866 69.2716 15.3072C69.1328 15.1258 69.0576 14.8654 69.0576 14.5559V9.72969H70.8881C70.9232 9.72969 70.9517 9.70123 70.9517 9.66611V7.88802C70.9517 7.85291 70.9232 7.82445 70.8881 7.82445H69.0576V5.33685C69.0576 5.30174 69.0292 5.27327 68.994 5.27327H66.9647Z" fill="white"/>
<path d="M103.487 5.27327C103.452 5.27327 103.423 5.30174 103.423 5.33685V7.82445H101.941C101.906 7.82445 101.877 7.85291 101.877 7.88802V9.66611C101.877 9.70123 101.906 9.72969 101.941 9.72969H103.423V15.0584C103.423 15.8424 103.634 16.4599 104.053 16.8813C104.472 17.3027 105.089 17.5185 105.883 17.5185C106.842 17.5185 107.458 17.2641 107.84 16.9019C107.858 16.8852 107.865 16.8598 107.857 16.8366L107.374 15.3098C107.367 15.288 107.349 15.2715 107.327 15.2668C107.304 15.262 107.281 15.2696 107.266 15.2867C107.198 15.3634 107.078 15.4408 106.924 15.499C106.771 15.5568 106.59 15.5939 106.405 15.5939C106.134 15.5939 105.931 15.4866 105.794 15.3072C105.655 15.1258 105.58 14.8654 105.58 14.5559V9.72969H107.41C107.445 9.72969 107.474 9.70123 107.474 9.66611V7.88802C107.474 7.85291 107.445 7.82445 107.41 7.82445H105.58V5.33685C105.58 5.30174 105.551 5.27327 105.516 5.27327H103.487Z" fill="white"/>
<path d="M82.0697 7.59252C81.3506 7.59252 80.6778 7.8288 80.1369 8.1372C79.6862 8.39415 79.3231 8.70347 79.0989 8.97331V7.88802C79.0989 7.85291 79.0705 7.82445 79.0354 7.82445H77.006C76.9709 7.82445 76.9424 7.85291 76.9424 7.88802V17.223C76.9424 17.2581 76.9709 17.2866 77.006 17.2866H79.0354C79.0705 17.2866 79.0989 17.2581 79.0989 17.223V10.7297C79.5203 10.1266 80.3274 9.51709 81.1807 9.51709C81.7179 9.51709 82.0845 9.68147 82.3183 9.95838C82.5537 10.2373 82.6633 10.6405 82.6633 11.135V17.223C82.6633 17.2581 82.6917 17.2866 82.7268 17.2866H84.7562C84.7913 17.2866 84.8198 17.2581 84.8198 17.223V10.7101C85.2219 10.1274 86.0477 9.51709 86.9208 9.51709C87.448 9.51709 87.8098 9.68124 88.0413 9.95815C88.2745 10.2371 88.3841 10.6405 88.3841 11.135V17.223C88.3841 17.2581 88.4125 17.2866 88.4476 17.2866H90.477C90.5121 17.2866 90.5406 17.2581 90.5406 17.223V10.4779C90.5406 9.52069 90.2963 8.79682 89.8243 8.31234C89.3521 7.82759 88.6616 7.59252 87.7905 7.59252C86.4342 7.59252 85.2247 8.4029 84.6407 9.23249C84.4745 8.76309 84.1906 8.36612 83.788 8.08019C83.3502 7.76926 82.7762 7.59252 82.0697 7.59252Z" fill="white"/>
<path fill-rule="evenodd" clip-rule="evenodd" d="M96.7584 7.59252C95.2557 7.59252 93.8866 8.08081 92.7913 9.11744C92.7698 9.13781 92.7652 9.17034 92.7803 9.19588L93.6113 10.6068C93.6212 10.6236 93.6383 10.6349 93.6577 10.6375C93.6771 10.6401 93.6965 10.6336 93.7105 10.62C94.5115 9.8381 95.4043 9.45911 96.4299 9.45911C97.0673 9.45911 97.5983 9.62091 97.9684 9.90952C98.3368 10.1969 98.5503 10.6131 98.5503 11.135V12.3613C97.8545 11.633 96.8014 11.2647 95.5988 11.2647C94.8242 11.2647 93.9977 11.49 93.3634 11.991C92.727 12.4937 92.2883 13.2708 92.2883 14.3626C92.2883 16.4764 94.0486 17.5185 95.5988 17.5185C96.7869 17.5185 97.8392 17.1131 98.5503 16.3805V17.223C98.5503 17.2581 98.5787 17.2866 98.6138 17.2866H100.643C100.678 17.2866 100.707 17.2581 100.707 17.223V11.0383C100.707 9.76483 100.245 8.89915 99.5143 8.35406C98.7865 7.81128 97.7998 7.59252 96.7584 7.59252ZM94.4641 14.4012C94.4641 13.9083 94.6681 13.5058 95.0087 13.2255C95.3503 12.9443 95.8328 12.7834 96.3912 12.7834C97.2597 12.7834 98.0992 13.1017 98.5503 13.707V15.0761C98.0992 15.6815 97.2597 15.9998 96.3912 15.9998C95.8328 15.9998 95.3502 15.8389 95.0085 15.5599C94.6678 15.2818 94.4641 14.8842 94.4641 14.4012Z" fill="white"/>
<path fill-rule="evenodd" clip-rule="evenodd" d="M113.215 7.59252C110.413 7.59252 108.416 9.80818 108.416 12.5458C108.416 14.0399 108.944 15.284 109.829 16.1546C110.714 17.0251 111.953 17.5185 113.369 17.5185C114.87 17.5185 116.259 17.0509 117.202 16.1479C117.224 16.1263 117.228 16.0914 117.21 16.0657L116.282 14.7322C116.271 14.7167 116.254 14.7068 116.235 14.7051C116.217 14.7035 116.198 14.7102 116.185 14.7235C115.542 15.3665 114.477 15.7292 113.582 15.7292C111.887 15.7292 110.856 14.6341 110.677 13.2859H117.815C117.85 13.2859 117.878 13.2574 117.878 13.2223V12.7391C117.878 11.2575 117.425 9.97092 116.613 9.05383C115.801 8.13601 114.633 7.59252 113.215 7.59252ZM115.777 11.7285H110.656C110.715 11.1894 110.932 10.615 111.332 10.17C111.747 9.70753 112.363 9.3818 113.215 9.3818C114.115 9.3818 114.745 9.71754 115.155 10.184C115.55 10.6332 115.745 11.2072 115.777 11.7285Z" fill="white"/>
<path d="M72.5374 7.82445C72.5023 7.82445 72.4738 7.85291 72.4738 7.88802V17.223C72.4738 17.2581 72.5023 17.2866 72.5374 17.2866H74.5667C74.6018 17.2866 74.6303 17.2581 74.6303 17.223V7.88802C74.6303 7.85291 74.6018 7.82445 74.5667 7.82445H72.5374Z" fill="white"/>
<path d="M100.217 22.3655C96.3769 22.3655 93.3892 25.0976 93.3892 29.0969C93.3892 33.0963 96.3769 35.8284 100.217 35.8284C102.854 35.8284 104.456 34.4593 105.45 32.8999C105.46 32.8848 105.463 32.8663 105.458 32.849C105.454 32.8317 105.442 32.8172 105.426 32.8091L103.493 31.8234C103.463 31.808 103.426 31.819 103.409 31.8485C102.801 32.9119 101.585 33.6912 100.217 33.6912C97.7036 33.6912 95.8356 31.7702 95.8356 29.0969C95.8356 26.4237 97.7036 24.5027 100.217 24.5027C101.584 24.5027 102.801 25.3009 103.409 26.3458C103.426 26.375 103.463 26.3858 103.493 26.3705L105.426 25.3848C105.442 25.3767 105.453 25.3623 105.458 25.3451C105.463 25.328 105.46 25.3096 105.451 25.2945C104.476 23.7343 102.853 22.3655 100.217 22.3655Z" fill="white"/>
<path d="M59.6699 22.4815C58.959 22.4815 58.3501 23.0698 58.3501 23.8013C58.3501 24.5328 58.959 25.1212 59.6699 25.1212C60.4008 25.1212 60.9898 24.5322 60.9898 23.8013C60.9898 23.0704 60.4008 22.4815 59.6699 22.4815Z" fill="white"/>
<path d="M153.741 22.4815C153.03 22.4815 152.421 23.0698 152.421 23.8013C152.421 24.5328 153.03 25.1212 153.741 25.1212C154.472 25.1212 155.061 24.5322 155.061 23.8013C155.061 23.0704 154.472 22.4815 153.741 22.4815Z" fill="white"/>
<path d="M48.0636 22.5781C48.0285 22.5781 48 22.6066 48 22.6417V35.5329C48 35.568 48.0285 35.5964 48.0636 35.5964H50.3248C50.36 35.5964 50.3884 35.568 50.3884 35.5329V30.0302H56.7608C56.7959 30.0302 56.8243 30.0018 56.8243 29.9667V27.976C56.8243 27.9409 56.7959 27.9124 56.7608 27.9124H50.3884V24.696H56.896C56.9312 24.696 56.9596 24.6675 56.9596 24.6324V22.6417C56.9596 22.6066 56.9312 22.5781 56.896 22.5781H48.0636Z" fill="white"/>
<path d="M73.6985 22.5781C73.6634 22.5781 73.6349 22.6066 73.6349 22.6417V35.5329C73.6349 35.568 73.6634 35.5964 73.6985 35.5964H75.7279C75.763 35.5964 75.7914 35.568 75.7914 35.5329V22.6417C75.7914 22.6066 75.763 22.5781 75.7279 22.5781H73.6985Z" fill="white"/>
<path fill-rule="evenodd" clip-rule="evenodd" d="M84.7384 22.5781C84.7032 22.5781 84.6748 22.6066 84.6748 22.6417V27.3113C83.9164 26.4012 82.8656 25.9024 81.7427 25.9024C80.517 25.9024 79.4604 26.3833 78.711 27.2482C77.9622 28.1124 77.5238 29.3555 77.5238 30.875C77.5238 32.4235 77.967 33.662 78.7186 34.5143C79.4708 35.3673 80.5274 35.8284 81.7427 35.8284C82.9 35.8284 83.95 35.2968 84.6748 34.4374V35.5329C84.6748 35.568 84.7032 35.5964 84.7384 35.5964H86.7677C86.8028 35.5964 86.8313 35.568 86.8313 35.5329V22.6417C86.8313 22.6066 86.8028 22.5781 86.7677 22.5781H84.7384ZM79.7576 30.875C79.7576 29.9782 80.0104 29.2156 80.4556 28.6785C80.8999 28.1425 81.539 27.827 82.3225 27.827C83.2603 27.827 84.2184 28.3683 84.6748 29.039V32.711C84.2188 33.3808 83.2611 33.9038 82.3225 33.9038C81.539 33.9038 80.8999 33.5882 80.4555 33.0546C80.0103 32.5198 79.7576 31.7621 79.7576 30.875Z" fill="white"/>
<path d="M117.648 22.5781C117.613 22.5781 117.584 22.6066 117.584 22.6417V35.5329C117.584 35.568 117.613 35.5964 117.648 35.5964H119.677C119.712 35.5964 119.741 35.568 119.741 35.5329V22.6417C119.741 22.6066 119.712 22.5781 119.677 22.5781H117.648Z" fill="white"/>
<path d="M122.117 22.5781C122.081 22.5781 122.053 22.6066 122.053 22.6417V35.5329C122.053 35.568 122.081 35.5964 122.117 35.5964H124.146C124.181 35.5964 124.21 35.568 124.21 35.5329V22.6417C124.21 22.6066 124.181 22.5781 124.146 22.5781H122.117Z" fill="white"/>
<path d="M147.163 23.5831C147.128 23.5831 147.099 23.6116 147.099 23.6467V26.1343H145.617C145.582 26.1343 145.553 26.1628 145.553 26.1979V27.976C145.553 28.0111 145.582 28.0395 145.617 28.0395H147.099V33.3682C147.099 34.1523 147.31 34.7698 147.729 35.1911C148.148 35.6126 148.766 35.8284 149.56 35.8284C150.518 35.8284 151.134 35.574 151.517 35.2118C151.534 35.195 151.541 35.1697 151.534 35.1465L151.05 33.6196C151.043 33.5978 151.025 33.5814 151.003 33.5766C150.981 33.5719 150.957 33.5795 150.942 33.5966C150.874 33.6733 150.754 33.7506 150.6 33.8089C150.447 33.8667 150.266 33.9038 150.081 33.9038C149.81 33.9038 149.607 33.7964 149.47 33.6171C149.331 33.4357 149.256 33.1753 149.256 32.8657V28.0395H151.086C151.121 28.0395 151.15 28.0111 151.15 27.976V26.1979C151.15 26.1628 151.121 26.1343 151.086 26.1343H149.256V23.6467C149.256 23.6116 149.227 23.5831 149.192 23.5831H147.163Z" fill="white"/>
<path fill-rule="evenodd" clip-rule="evenodd" d="M67.2889 25.9024C64.4868 25.9024 62.4902 28.118 62.4902 30.8557C62.4902 32.3497 63.0178 33.5938 63.9031 34.4645C64.7883 35.3349 66.0273 35.8284 67.4435 35.8284C68.9439 35.8284 70.3333 35.3608 71.2756 34.4578C71.2982 34.4361 71.3017 34.4013 71.2838 34.3756L70.3561 33.042C70.3453 33.0266 70.3283 33.0167 70.3095 33.015C70.2908 33.0133 70.2723 33.0201 70.2589 33.0334C69.616 33.6763 68.551 34.0391 67.6561 34.0391C65.9609 34.0391 64.9298 32.9439 64.7514 31.5957H71.8887C71.9238 31.5957 71.9523 31.5673 71.9523 31.5322V31.049C71.9523 29.5674 71.499 28.2808 70.6873 27.3637C69.875 26.4459 68.7074 25.9024 67.2889 25.9024ZM65.4059 28.4799C65.0061 28.9249 64.7893 29.4993 64.7304 30.0384H69.8507C69.8189 29.517 69.6244 28.9431 69.2294 28.4939C68.8192 28.0274 68.1894 27.6917 67.2889 27.6917C66.4372 27.6917 65.8214 28.0174 65.4059 28.4799Z" fill="white"/>
<path fill-rule="evenodd" clip-rule="evenodd" d="M111.169 25.9024C108.172 25.9024 106.312 28.1577 106.312 30.8557C106.312 33.5728 108.172 35.8284 111.169 35.8284C112.683 35.8284 113.904 35.2661 114.745 34.361C115.586 33.4564 116.045 32.2132 116.045 30.8557C116.045 29.5078 115.586 28.2693 114.745 27.3673C113.904 26.4647 112.683 25.9024 111.169 25.9024ZM108.546 30.8557C108.546 30.0461 108.784 29.2878 109.23 28.7333C109.675 28.1802 110.328 27.827 111.169 27.827C112.019 27.827 112.677 28.1804 113.124 28.7335C113.573 29.2879 113.811 30.0461 113.811 30.8557C113.811 31.6751 113.573 32.4382 113.124 32.995C112.677 33.5504 112.019 33.9038 111.169 33.9038C110.328 33.9038 109.675 33.5506 109.23 32.9951C108.784 32.4382 108.546 31.6751 108.546 30.8557Z" fill="white"/>
<path fill-rule="evenodd" clip-rule="evenodd" d="M130.741 25.9024C127.939 25.9024 125.942 28.118 125.942 30.8557C125.942 32.3497 126.469 33.5938 127.355 34.4645C128.24 35.3349 129.479 35.8284 130.895 35.8284C132.396 35.8284 133.785 35.3608 134.727 34.4578C134.75 34.4361 134.753 34.4013 134.735 34.3756L133.808 33.042C133.797 33.0266 133.78 33.0167 133.761 33.015C133.742 33.0133 133.724 33.0201 133.711 33.0334C133.068 33.6763 132.003 34.0391 131.108 34.0391C129.413 34.0391 128.381 32.9439 128.203 31.5957H135.34C135.376 31.5957 135.404 31.5673 135.404 31.5322V31.049C135.404 29.5674 134.951 28.2808 134.139 27.3637C133.327 26.4459 132.159 25.9024 130.741 25.9024ZM128.858 28.4799C128.458 28.9249 128.241 29.4993 128.182 30.0384H133.302C133.271 29.517 133.076 28.9431 132.681 28.4939C132.271 28.0274 131.641 27.6917 130.741 27.6917C129.889 27.6917 129.273 28.0174 128.858 28.4799Z" fill="white"/>
<path d="M141.402 25.9024C138.525 25.9024 136.507 28 136.507 30.8557C136.507 33.7305 138.525 35.8284 141.402 35.8284C143.24 35.8284 144.36 35.0447 145.029 34.1404C145.048 34.1144 145.045 34.0781 145.021 34.056L143.687 32.8191C143.674 32.8068 143.656 32.8007 143.638 32.8024C143.62 32.8042 143.603 32.8136 143.593 32.8282C143.082 33.5277 142.386 33.9038 141.499 33.9038C140.666 33.9038 139.978 33.5871 139.498 33.0504C139.017 32.5131 138.741 31.7512 138.741 30.8557C138.741 29.9603 139.017 29.2033 139.497 28.6709C139.977 28.1391 140.665 27.827 141.499 27.827C142.387 27.827 143.082 28.1844 143.592 28.9018C143.603 28.9168 143.619 28.9264 143.638 28.9283C143.656 28.9301 143.674 28.9241 143.687 28.9116L145.021 27.6747C145.045 27.6527 145.048 27.6163 145.029 27.5903C144.36 26.686 143.24 25.9024 141.402 25.9024Z" fill="white"/>
<path fill-rule="evenodd" clip-rule="evenodd" d="M166.294 30.8557C166.294 29.5078 165.834 28.2693 164.994 27.3673C164.152 26.4647 162.932 25.9024 161.418 25.9024C158.421 25.9024 156.561 28.1577 156.561 30.8557C156.561 33.5728 158.421 35.8284 161.418 35.8284C162.932 35.8284 164.152 35.2661 164.994 34.361C165.835 33.4564 166.294 32.2132 166.294 30.8557ZM158.795 30.8557C158.795 30.0461 159.033 29.2878 159.479 28.7333C159.924 28.1802 160.577 27.827 161.418 27.827C162.268 27.827 162.926 28.1804 163.373 28.7335C163.822 29.2879 164.06 30.0461 164.06 30.8557C164.06 31.6751 163.822 32.4382 163.373 32.995C162.926 33.5504 162.268 33.9038 161.418 33.9038C160.577 33.9038 159.924 33.5506 159.479 32.9951C159.033 32.4382 158.795 31.6751 158.795 30.8557Z" fill="white"/>
<path d="M173.405 25.9024C171.999 25.9024 170.838 26.6002 170.183 27.3057V26.1979C170.183 26.1628 170.155 26.1343 170.119 26.1343H168.09C168.055 26.1343 168.027 26.1628 168.027 26.1979V35.5329C168.027 35.568 168.055 35.5964 168.09 35.5964H170.119C170.155 35.5964 170.183 35.568 170.183 35.5329V29.0404C170.641 28.4212 171.506 27.827 172.516 27.827C173.079 27.827 173.528 27.9464 173.838 28.2328C174.146 28.5183 174.327 28.9813 174.327 29.6961V35.5329C174.327 35.568 174.356 35.5964 174.391 35.5964H176.42C176.455 35.5964 176.484 35.568 176.484 35.5329V28.9617C176.484 27.9944 176.23 27.2271 175.712 26.7017C175.194 26.1761 174.421 25.9024 173.405 25.9024Z" fill="white"/>
<path d="M182.013 25.9024C180.822 25.9024 179.889 26.2343 179.252 26.7651C178.615 27.2963 178.277 28.0243 178.277 28.807C178.277 29.7211 178.64 30.3278 179.184 30.7478C179.724 31.1648 180.441 31.3955 181.147 31.5697C181.384 31.6281 181.619 31.6801 181.847 31.7304C182.304 31.8314 182.73 31.9257 183.081 32.0522C183.342 32.1464 183.553 32.256 183.698 32.3939C183.841 32.5297 183.921 32.6938 183.921 32.9044C183.921 33.2515 183.776 33.5463 183.486 33.7564C183.193 33.9682 182.749 34.0971 182.148 34.0971C180.949 34.0971 179.67 33.467 179.024 32.8021C179.011 32.7881 178.991 32.7811 178.972 32.7832C178.953 32.7852 178.935 32.796 178.925 32.8124L177.997 34.2813C177.981 34.3066 177.985 34.3397 178.006 34.3607C178.987 35.322 180.454 35.8284 182.052 35.8284C183.318 35.8284 184.304 35.5118 184.976 34.9812C185.648 34.4496 186 33.7063 186 32.8657C186 31.9189 185.639 31.2823 185.095 30.8385C184.555 30.3975 183.838 30.1495 183.13 29.9679C182.85 29.8958 182.569 29.8338 182.3 29.7744L182.294 29.773C182.226 29.758 182.159 29.7431 182.092 29.7283C181.762 29.6544 181.456 29.5818 181.195 29.495C180.933 29.408 180.722 29.3086 180.577 29.1842C180.434 29.0619 180.356 28.9162 180.356 28.7297C180.356 28.4258 180.512 28.1591 180.799 27.9659C181.088 27.7719 181.51 27.653 182.032 27.653C183.176 27.653 184.202 28.1301 184.748 28.7524C184.762 28.7676 184.782 28.7756 184.802 28.7737C184.822 28.7718 184.84 28.7604 184.851 28.7429L185.701 27.3127C185.717 27.2865 185.712 27.2529 185.689 27.2326C184.827 26.469 183.614 25.9024 182.013 25.9024Z" fill="white"/>
<path d="M58.6649 26.1343C58.6298 26.1343 58.6014 26.1628 58.6014 26.1979V35.5329C58.6014 35.568 58.6298 35.5964 58.6649 35.5964H60.6943C60.7294 35.5964 60.7578 35.568 60.7578 35.5329V26.1979C60.7578 26.1628 60.7294 26.1343 60.6943 26.1343H58.6649Z" fill="white"/>
<path d="M152.736 26.1343C152.701 26.1343 152.672 26.1628 152.672 26.1979V35.5329C152.672 35.568 152.701 35.5964 152.736 35.5964H154.765C154.8 35.5964 154.829 35.568 154.829 35.5329V26.1979C154.829 26.1628 154.8 26.1343 154.765 26.1343H152.736Z" fill="white"/>
<defs>
<clipPath id="clip0_803_14868">
<rect width="40" height="40" fill="white"/>
</clipPath>
</defs>
</svg>
